 http://www.imdb.com/title/tt1863201/


Plot:

 Urbanites Alex and Penny escape their stuffy city life to raise their newborn in the country. Instead, they find their spacious farmhome harbors horrors that threaten their relationship, imperil their son, and drive them to acts that neither believed they were capable of, but both are powerless to stop.


 Cast:

 Johnathon Schaech ... Alex
 Andrea Frankle ... Johanna
 Pell James ... Penny
 Philippe Brenninkmeyer ... Michael

Genres:
  Horror 


Country:
 USA 

Language:
 English 



Dark.Circles.2013.DVDRiP.AC3.XViD-CM8


 Source: LTFS Thx


 Video: 720x304 @bitrate 1596 2pass
 Audio: English AC3 5.1 @448
 Sample: yes included

 
http://www.imdb.com/title/tt1863201/


 General
 Complete name                            : Dark.Circles.2013.DVDRiP.AC3.XViD-CM8.avi
 Format                                   : AVI
 Format/Info                              : Audio Video Interleave
 File size                                : 988 MiB
 Duration                                 : 1h 26mn
 Overall bit rate                         : 1 596 Kbps
 Writing application                      : VirtualDubMod 1.5.4.1 (build 2178/release)
 Writing library                          : VirtualDubMod build 2178/release

 Video
 ID                                       : 0
 Format                                   : MPEG-4 Visual
 Format profile                           : Advanced Simple@L5
 Format settings, BVOP                    : No
 Format settings, QPel                    : No
 Format settings, GMC                     : No warppoints
 Format settings, Matrix                  : Custom
 Codec ID                                 : XVID
 Codec ID/Hint                            : XviD
 Duration                                 : 1h 26mn
 Bit rate                                 : 1 141 Kbps
 Width                                    : 720 pixels
 Height                                   : 304 pixels
 Display aspect ratio                     : 2.35:1
 Frame rate                               : 23.976 fps
 Color space                              : YUV
 Chroma subsampling                       : 4:2:0
 Bit depth                                : 8 bits
 Scan type                                : Progressive
 Compression mode                         : Lossy
 Bits/(Pixel*Frame)                       : 0.217
 Stream size                              : 707 MiB (72%)
 Writing library                          : XviD 1.2.1 (UTC 2008-12-04)

 Audio
 ID                                       : 1
 Format                                   : AC-3
 Format/Info                              : Audio Coding 3
 Mode extension                           : CM (complete main)
 Format settings, Endianness              : Big
 Codec ID                                 : 2000
 Duration                                 : 1h 26mn
 Bit rate mode                            : Constant
 Bit rate                                 : 448 Kbps
 Channel(s)                               : 6 channels
 Channel positions                        : Front: L C R, Side: L R, LFE
 Sampling rate                            : 48.0 KHz
 Bit depth                                : 16 bits
 Compression mode                         : Lossy
 Stream size                              : 278 MiB (28%)
 Alignment                                : Split accross interleaves
 Interleave, duration                     : 96 ms (2.30 video frames)
 Interleave, preload duration             : 96 ms




    	http://addpix.net/viewer.php?file=67183132975416941195.jpg
    	http://addpix.net/viewer.php?file=88182019468236916151.jpg
    	http://addpix.net/viewer.php?file=58879463517448978381.jpg
    	http://addpix.net/viewer.php?file=62353952301770976861.jpg
    	http://addpix.net/viewer.php?file=95424168982308518711.jpg
    	http://addpix.net/viewer.php?file=23415659719215449929.jpg